<svg width="163" height="149" viewBox="0 0 163 149" fill="none" xmlns="http://www.w3.org/2000/svg">
<path d="M94.5007 83.9491C93.1373 84.1899 91.8029 84.6999 90.5803 85.447C87.3964 87.3417 85.503 90.1887 86.3517 91.8054C87.2003 93.4221 90.4694 93.1958 93.6533 91.3011C94.8914 90.5836 95.9984 89.641 96.9063 88.5316C97.3281 87.9947 97.4178 87.3024 97.1353 86.766L96.0328 84.6658C95.7524 84.1279 95.1511 83.847 94.5007 83.9491Z" fill="#D5D6DB"/>
<path d="M86.583 56.9538C85.5944 57.1286 84.6267 57.4986 83.7401 58.0404C81.4319 59.414 80.0583 61.4783 80.6732 62.6496C81.288 63.821 83.6594 63.6567 85.9672 62.2833C86.865 61.7627 87.6676 61.0788 88.326 60.2743C88.6315 59.8852 88.6964 59.3835 88.4916 58.9947L87.6933 57.4739C87.4903 57.084 87.0546 56.88 86.583 56.9538Z" fill="#D5D6DB"/>
<path d="M73.779 57.4999C73.5605 57.4631 73.3256 57.5107 73.1199 57.6332L67.6955 60.8552C67.2418 61.1238 67.0499 61.6774 67.2672 62.092C67.3169 62.187 67.386 62.2696 67.4707 62.3349L80.4213 72.3854L98.5088 61.6418L73.779 57.4999Z" fill="#029BC5"/>
<path d="M130.031 58.0362L81.26 87.8893L52.6026 98.4081L38.074 100.64L36.566 97.6016L117.83 48.8926C120.252 47.4341 122.928 46.6126 125.588 46.5114C126.752 46.4739 127.898 46.587 128.998 46.8476C129.974 47.0702 130.896 47.44 131.735 47.9462C132.672 48.5188 134.48 48.6901 135.037 49.7498C135.039 49.7483 136.293 54.5328 130.031 58.0362Z" fill="#E1E6E9"/>
<path d="M82.4236 82.6462L60.7027 116.666C60.43 117.146 60.5703 117.709 61.0157 117.924C61.289 118.056 61.6283 118.029 61.9172 117.854L67.3085 114.593C68.3455 113.965 69.2703 113.145 70.026 112.184L111.693 64.1403L82.4236 82.6462Z" fill="#029BC5"/>
<path d="M29.298 81.7541C28.9496 81.6141 28.5303 81.6558 28.1724 81.8659L23.679 84.5046C23.0668 84.8638 22.8095 85.6019 23.1041 86.1533C23.1602 86.2582 23.2341 86.3517 23.3234 86.4302L35.506 97.1704L48.7389 89.56L29.298 81.7541Z" fill="#029BC5"/>
<path d="M39.9473 98.599L33.0924 108.065C32.992 108.201 33.0102 108.38 33.133 108.465C33.2215 108.526 33.3447 108.523 33.4464 108.458L37.6082 105.934C37.6405 105.915 37.67 105.889 37.6946 105.86L47.6617 93.9264L39.9473 98.599Z" fill="#029BC5"/>
<path d="M127.944 46.9232C126.798 46.6678 125.606 46.5614 124.395 46.6057C123.177 48.2531 122.379 50.135 122.08 52.0636C122.052 52.4528 122.348 52.7502 122.74 52.7279C122.862 52.7208 122.984 52.683 123.095 52.6177L130.796 48.0103C129.92 47.507 128.96 47.141 127.944 46.9232Z" fill="#029BC5"/>
<path d="M111.332 55.5264L116.418 52.6284L120.926 60.7364L115.84 63.6344L111.332 55.5264Z" fill="#D5D6DB"/>
<path d="M108.227 58.8215C107.617 59.1698 107.362 59.891 107.658 60.4323L108.138 61.3093C108.454 61.8384 109.196 61.9703 109.796 61.6038C110.367 61.2547 110.608 60.5752 110.346 60.0486L109.867 59.1716C109.571 58.6307 108.837 58.4739 108.227 58.8215Z" fill="#3A556A"/>
<path d="M103.763 61.594C103.153 61.9422 102.898 62.6635 103.194 63.2048L103.673 64.0818C103.989 64.6109 104.732 64.7428 105.332 64.3762C105.903 64.0272 106.143 63.3476 105.881 62.821L105.402 61.9441C105.106 61.4033 104.373 61.2465 103.763 61.594Z" fill="#3A556A"/>
<path d="M99.297 64.3673C98.6877 64.7161 98.4335 65.4365 98.7292 65.9773L99.2085 66.8543C99.5248 67.3834 100.267 67.5153 100.867 67.1488C101.438 66.7997 101.679 66.1202 101.417 65.5936L100.937 64.7167C100.642 64.1753 99.9072 64.019 99.297 64.3673Z" fill="#3A556A"/>
<path d="M94.8328 67.1397C94.2234 67.4884 93.9693 68.2088 94.2649 68.7497L94.7443 69.6267C95.0605 70.1558 95.8031 70.2877 96.4031 69.9212C96.9741 69.5721 97.2144 68.8926 96.9526 68.366L96.4732 67.489C96.1771 66.9478 95.4427 66.7914 94.8328 67.1397Z" fill="#3A556A"/>
<path d="M90.3689 69.9122C89.7592 70.261 89.5049 70.9815 89.8007 71.5224L90.2805 72.3994C90.5762 72.9401 91.3103 73.0963 91.9202 72.7483C92.5301 72.4004 92.7847 71.68 92.489 71.1393L92.0093 70.2622C91.7143 69.7211 90.9805 69.5641 90.3702 69.9114C90.3697 69.9117 90.3694 69.9119 90.3689 69.9122Z" fill="#3A556A"/>
<path d="M85.9046 72.6846C85.2948 73.0334 85.0405 73.7539 85.3364 74.2948L85.8161 75.1719C86.1118 75.7126 86.846 75.8688 87.4559 75.5208C88.0657 75.1728 88.3204 74.4524 88.0246 73.9117L87.5449 73.0347C87.25 72.4936 86.5161 72.3366 85.9058 72.6839C85.9053 72.6842 85.9048 72.6845 85.9046 72.6846Z" fill="#3A556A"/>
<path d="M81.4399 75.4572C80.8302 75.806 80.5759 76.5265 80.8718 77.0674L81.3515 77.9444C81.648 78.4847 82.3825 78.6398 82.9917 78.2912C83.5999 77.9433 83.854 77.2244 83.5597 76.6845L83.08 75.8074C82.7844 75.2664 82.0503 75.1096 81.4399 75.4572Z" fill="#3A556A"/>
<path d="M76.9753 78.2297C76.3656 78.5785 76.1113 79.299 76.4072 79.8399L76.8869 80.717C77.1834 81.2572 77.9179 81.4123 78.5271 81.0638C79.1353 80.7158 79.3894 79.9969 79.0951 79.4569L78.6154 78.5799C78.3198 78.0388 77.5857 77.882 76.9753 78.2297Z" fill="#3A556A"/>
<path d="M72.5111 81.0021C71.9014 81.3509 71.6471 82.0714 71.9429 82.6123L72.4227 83.4894C72.7192 84.0296 73.4537 84.1847 74.0629 83.8362C74.6711 83.4882 74.9252 82.7694 74.6309 82.2294L74.1512 81.3523C73.8553 80.8114 73.1212 80.6546 72.5111 81.0021Z" fill="#3A556A"/>
<path d="M68.0453 83.7753C67.4354 84.1233 67.1808 84.8437 67.4765 85.3844L67.4771 85.3855L67.9568 86.2626C68.2533 86.8029 68.9878 86.9579 69.5971 86.6094C70.2053 86.2615 70.4594 85.5426 70.1651 85.0026L69.6854 84.1255C69.3898 83.5845 68.6557 83.4276 68.0453 83.7753Z" fill="#3A556A"/>
<path d="M63.582 86.5471C62.9722 86.895 62.7175 87.6154 63.0133 88.1561L63.0139 88.1572L63.4936 89.0343C63.7901 89.5745 64.5246 89.7296 65.1339 89.3811C65.7421 89.0332 65.9962 88.3143 65.7019 87.7743L65.2221 86.8973C64.9263 86.3564 64.1922 86.1996 63.582 86.5471Z" fill="#3A556A"/>
</svg>
