<svg width="163" height="149" viewBox="0 0 163 149" fill="none" xmlns="http://www.w3.org/2000/svg">
<path d="M94.286 83.8553C92.9226 84.0961 91.5882 84.6061 90.3656 85.3532C87.1816 87.248 85.2883 90.095 86.137 91.7117C86.9856 93.3284 90.2547 93.1021 93.4386 91.2073C94.6767 90.4898 95.7837 89.5472 96.6916 88.4379C97.1134 87.901 97.2031 87.2086 96.9205 86.6723L95.8181 84.5721C95.5377 84.0342 94.9364 83.7532 94.286 83.8553Z" fill="#D5D6DB"/>
<path d="M86.3683 56.86C85.3797 57.0348 84.4119 57.4048 83.5253 57.9466C81.2172 59.3201 79.8436 61.3845 80.4585 62.5558C81.0733 63.7271 83.4446 63.5628 85.7525 62.1894C86.6502 61.6688 87.4529 60.9849 88.1113 60.1805C88.4168 59.7913 88.4816 59.2897 88.2769 58.9008L87.4786 57.3801C87.2756 56.9902 86.8399 56.7861 86.3683 56.86Z" fill="#D5D6DB"/>
<path d="M73.5643 57.4061C73.3458 57.3692 73.1109 57.4169 72.9052 57.5393L67.4808 60.7613C67.0271 61.0299 66.8352 61.5835 67.0525 61.9981C67.1022 62.0931 67.1713 62.1757 67.256 62.241L80.2065 72.2916L98.2941 61.548L73.5643 57.4061Z" fill="#029BC5"/>
<path d="M129.816 57.9422L81.0453 87.7953L52.3879 98.3141L37.8592 100.546L36.3513 97.5076L117.616 48.7986C120.038 47.3402 122.714 46.5186 125.373 46.4174C126.537 46.3799 127.683 46.493 128.784 46.7536C129.76 46.9762 130.681 47.346 131.52 47.8522C132.457 48.4248 134.265 48.5961 134.823 49.6558C134.825 49.6543 136.078 54.4388 129.816 57.9422Z" fill="#E1E6E9"/>
<path d="M82.2088 82.5524L60.4879 116.573C60.2153 117.053 60.3556 117.615 60.8009 117.83C61.0743 117.962 61.4136 117.936 61.7025 117.761L67.0938 114.499C68.1307 113.871 69.0556 113.052 69.8113 112.09L111.478 64.0465L82.2088 82.5524Z" fill="#029BC5"/>
<path d="M29.0832 81.6603C28.7348 81.5202 28.3155 81.5619 27.9577 81.7721L23.4643 84.4107C22.852 84.77 22.5947 85.508 22.8894 86.0595C22.9455 86.1643 23.0194 86.2578 23.1087 86.3363L35.2913 97.0765L48.5241 89.4662L29.0832 81.6603Z" fill="#029BC5"/>
<path d="M39.7326 98.5052L32.8777 107.971C32.7773 108.107 32.7955 108.286 32.9183 108.371C33.0068 108.432 33.13 108.429 33.2317 108.364L37.3935 105.84C37.4258 105.821 37.4553 105.796 37.4799 105.766L47.447 93.8326L39.7326 98.5052Z" fill="#029BC5"/>
<path d="M127.729 46.8293C126.584 46.574 125.391 46.4675 124.18 46.5118C122.962 48.1592 122.164 50.0411 121.865 51.9697C121.837 52.3589 122.133 52.6563 122.525 52.634C122.647 52.627 122.769 52.5891 122.88 52.5238L130.581 47.9165C129.706 47.4131 128.745 47.0471 127.729 46.8293Z" fill="#029BC5"/>
<path d="M111.117 55.4324L116.203 52.5344L120.711 60.6424L115.625 63.5404L111.117 55.4324Z" fill="#D5D6DB"/>
<path d="M108.013 58.7277C107.403 59.0759 107.148 59.7971 107.444 60.3384L107.923 61.2154C108.239 61.7445 108.982 61.8764 109.582 61.5099C110.153 61.1608 110.393 60.4813 110.131 59.9547L109.652 59.0777C109.356 58.5369 108.623 58.38 108.013 58.7277Z" fill="#3A556A"/>
<path d="M103.548 61.5001C102.938 61.8484 102.683 62.5696 102.979 63.1109L103.459 63.9879C103.775 64.517 104.517 64.6489 105.117 64.2824C105.688 63.9333 105.929 63.2538 105.667 62.7272L105.187 61.8502C104.892 61.3095 104.158 61.1526 103.548 61.5001Z" fill="#3A556A"/>
<path d="M99.0824 64.2733C98.4731 64.6221 98.2189 65.3425 98.5146 65.8833L98.9939 66.7603C99.3102 67.2894 100.053 67.4213 100.653 67.0548C101.224 66.7057 101.464 66.0262 101.202 65.4996L100.723 64.6227C100.427 64.0813 99.6926 63.925 99.0824 64.2733Z" fill="#3A556A"/>
<path d="M94.618 67.0458C94.0087 67.3946 93.7546 68.115 94.0502 68.6558L94.5296 69.5328C94.8458 70.0619 95.5884 70.1938 96.1884 69.8273C96.7594 69.4782 96.9997 68.7987 96.7379 68.2721L96.2585 67.3951C95.9624 66.8539 95.228 66.6976 94.618 67.0458Z" fill="#3A556A"/>
<path d="M90.1543 69.8184C89.5446 70.1672 89.2903 70.8877 89.5861 71.4286L90.0659 72.3057C90.3616 72.8464 91.0957 73.0026 91.7056 72.6546C92.3155 72.3066 92.5701 71.5862 92.2744 71.0455L91.7947 70.1685C91.4997 69.6273 90.7659 69.4704 90.1556 69.8177C90.1551 69.818 90.1548 69.8181 90.1543 69.8184Z" fill="#3A556A"/>
<path d="M85.6898 72.5909C85.0801 72.9397 84.8258 73.6602 85.1217 74.2011L85.6014 75.0781C85.8971 75.6188 86.6313 75.775 87.2411 75.427C87.851 75.0791 88.1057 74.3587 87.8099 73.818L87.3302 72.9409C87.0352 72.3998 86.3014 72.2428 85.6911 72.5901C85.6906 72.5904 85.6901 72.5907 85.6898 72.5909Z" fill="#3A556A"/>
<path d="M81.2252 75.3633C80.6155 75.7122 80.3612 76.4326 80.6571 76.9735L81.1368 77.8506C81.4333 78.3908 82.1678 78.5459 82.777 78.1974C83.3852 77.8494 83.6393 77.1306 83.345 76.5906L82.8653 75.7135C82.5697 75.1725 81.8356 75.0157 81.2252 75.3633Z" fill="#3A556A"/>
<path d="M76.7606 78.1358C76.1509 78.4846 75.8966 79.2051 76.1925 79.746L76.6722 80.6231C76.9687 81.1633 77.7032 81.3184 78.3124 80.9699C78.9206 80.6219 79.1747 79.903 78.8804 79.3631L78.4007 78.486C78.1051 77.9449 77.371 77.7881 76.7606 78.1358Z" fill="#3A556A"/>
<path d="M72.2964 80.9083C71.6866 81.2571 71.4324 81.9775 71.7282 82.5184L72.2079 83.3955C72.5044 83.9357 73.2389 84.0908 73.8482 83.7423C74.4564 83.3944 74.7105 82.6755 74.4162 82.1355L73.9364 81.2585C73.6406 80.7176 72.9065 80.5608 72.2964 80.9083Z" fill="#3A556A"/>
<path d="M67.8306 83.6814C67.2207 84.0294 66.9661 84.7498 67.2618 85.2905L67.2624 85.2917L67.7421 86.1687C68.0386 86.709 68.7731 86.8641 69.3823 86.5155C69.9905 86.1676 70.2447 85.4487 69.9503 84.9087L69.4706 84.0316C69.175 83.4906 68.4409 83.3338 67.8306 83.6814Z" fill="#3A556A"/>
<path d="M63.3673 86.4532C62.7575 86.8012 62.5028 87.5216 62.7985 88.0622L62.7992 88.0634L63.2789 88.9404C63.5754 89.4806 64.3099 89.6357 64.9191 89.2872C65.5273 88.9393 65.7815 88.2204 65.4871 87.6804L65.0074 86.8034C64.7116 86.2625 63.9774 86.1057 63.3673 86.4532Z" fill="#3A556A"/>
</svg>
